<svg id="_2" data-name="2" xmlns="http://www.w3.org/2000/svg" viewBox="0 0 455.42 397.78"><defs><style>.cls-1{fill:none;}</style></defs><path class="cls-1" d="M483.33,250c11-17.68-2.15-21.83-2.15-21.83-17,19-43.18,11.29-24.18.29s30.67-28.46,40.67-59.73-31.29-11.11-31.29-11.11C447.38,171.62,455,142,455,142s19.33-32,11.33-50c-5.7-12.83-42,56.59-71.85,105.16,12.12,26.16,17.22,56.84,18.66,85.93C468.82,278.68,475,263.33,483.33,250Z" transform="translate(-56 -67.22)"/><path class="cls-1" d="M364,239c-26,21-14-9-14-9,9.67-5.44,18.17-14.34,25.8-25.22C348.93,146.1,283.17,116.28,133,201H98l13,30S58,512,383,393c0,0,11.14-50,9.45-104.73A414.6,414.6,0,0,1,341,283.46c20,.88,36.89,1.07,51.3.69-1-22.44-4.15-45.49-11.22-66.08C374.45,227.81,368.57,235.31,364,239Z" transform="translate(-56 -67.22)"/><path d="M489.12,218.11S515,180,511,153s-37.91-7.81-40.59-9.26c-1.81-1,5.56-17.46,9.59-26.74,10-23-.67-39-.67-39s-12-21.17-37-4.17c-17.11,11.64-31.57,67.87-54.39,110.85a138.06,138.06,0,0,1,6.54,12.48c29.83-48.57,66.15-118,71.85-105.16,8,18-11.33,50-11.33,50s-7.62,29.62,11.38,15.62c0,0,41.29-20.16,31.29,11.11S476,217.46,457,228.46s7.18,18.71,24.18-.29c0,0,13.15,4.15,2.15,21.83-8.29,13.33-14.51,28.68-70.19,33.09.08,1.74.16,3.47.22,5.2,43.54-1.37,90.4-12.45,89.31-54A22.16,22.16,0,0,0,489.12,218.11Z" transform="translate(-56 -67.22)"/><path d="M341,283.46a414.6,414.6,0,0,0,51.45,4.81c0-1.37-.09-2.74-.15-4.12C377.89,284.53,361,284.34,341,283.46Z" transform="translate(-56 -67.22)"/><path d="M350,230s-12,30,14,9c4.57-3.69,10.45-11.19,17.08-20.93q-2.35-6.84-5.28-13.29C368.17,215.66,359.67,224.56,350,230Z" transform="translate(-56 -67.22)"/><path d="M392.45,288.27C394.14,343,394,388.67,394,388.67,69,507.67,103.33,231.1,103.33,226.91s-14.5-40.24-14.5-40.24L133,192c150.17-84.72,215.93-45.9,242.8,12.78a191.82,191.82,0,0,0,12.14-20.1C354,127.42,297.75,98.16,138,178.9L56,162l39,65.21S56,543,396,407l37,58,37-47-62.79-25.79s8.06-49.63,6.15-103.92C406.22,288.51,399.18,288.47,392.45,288.27Z" transform="translate(-56 -67.22)"/><path d="M392.3,284.15c.06,1.38.11,2.75.15,4.12,6.73.2,13.77.24,20.91,0-.06-1.73-.14-3.46-.22-5.2C406.85,283.59,399.93,284,392.3,284.15Z" transform="translate(-56 -67.22)"/><path d="M381.08,218.07c4.21-6.2,8.73-13.3,13.4-20.91a138.06,138.06,0,0,0-6.54-12.48,191.82,191.82,0,0,1-12.14,20.1Q378.74,211.21,381.08,218.07Z" transform="translate(-56 -67.22)"/><path d="M252,212c-8.33,8.33-14-16.5-27.83-16.5S202,197.41,202,194.62s11.19-12,25-12S252,209.21,252,212Z" transform="translate(-56 -67.22)"/></svg>